<?xml version="1.0" encoding="UTF-8" standalone="no"?>
<svg
   xmlns:dc="http://purl.org/dc/elements/1.1/"
   xmlns:cc="http://creativecommons.org/ns#"
   xmlns:rdf="http://www.w3.org/1999/02/22-rdf-syntax-ns#"
   xmlns:svg="http://www.w3.org/2000/svg"
   xmlns="http://www.w3.org/2000/svg"
   id="svg8"
   version="1.1"
   viewBox="0 0 3.7041667 3.7041667"
   height="3.7041667mm"
   width="3.7041667mm">
  <path
     d="M 2.2172889,0 2.0404316,0.17685724 2.3155835,0.45200914 0.19329646,2.575027 c -0.25772868,0.2577287 -0.25772853,0.6762533 -4e-8,0.9339818 0.25772848,0.2577285 0.67808029,0.2595569 0.93580878,0.00183 L 3.2521231,1.3885487 3.527275,1.6637005 3.7041322,1.4868433 Z m 0.2747865,0.62850098 0.5824597,0.58245962 -0.082217,0.082217 c -0.028942,0.016031 -0.062872,0.033916 -0.1045065,0.051157 -0.097015,0.040176 -0.2122652,0.060715 -0.2733249,0.040195 C 2.584005,1.3742847 2.581533,1.3692147 2.5724651,1.352008 2.5633943,1.3348055 2.5543023,1.301246 2.5446941,1.2562712 2.5350859,1.2112964 2.5244365,1.1546362 2.4891521,1.0969535 2.4538682,1.0392712 2.391201,0.98683641 2.3093716,0.95956021 2.2672238,0.94551141 2.2254822,0.93830111 2.1844022,0.93617411 Z M 2.2826969,1.1864783 c 0.0093,0.00682 0.014796,0.014121 0.020463,0.023386 0.011341,0.018525 0.020589,0.048808 0.029598,0.090987 0.00901,0.042177 0.016202,0.096885 0.046041,0.1534712 0.029839,0.056588 0.088879,0.1115093 0.1658951,0.1373932 0.043153,0.014502 0.085998,0.019949 0.128258,0.020828 l -1.72070409,1.720704 c -0.16283,0.16283 -0.41962971,0.1628297 -0.58245968,1e-7 C 0.22918918,3.1926488 0.21057706,2.9821095 0.31278472,2.822408 L 0.57076245,3.0803857 0.71107896,2.9400692 0.44579306,2.6747833 0.661018,2.4595584 0.92630391,2.7248443 1.0666204,2.5845278 0.80133451,2.3192419 1.0165596,2.1040167 1.2818455,2.3693026 1.422162,2.2289861 1.1568761,1.9637002 1.3724666,1.7481097 1.6377525,2.0133957 1.778069,1.8730791 1.5127831,1.6077932 1.7280082,1.3925682 1.9932941,1.6578541 2.1336106,1.5175376 1.8683247,1.2522517 l 0.00512,-0.00512 c 0.024471,-0.014557 0.049616,-0.029918 0.083678,-0.044945 0.068355,-0.030153 0.1468547,-0.050418 0.2166867,-0.047138 0.023277,0.00109 0.045542,0.00446 0.066139,0.011328 0.020541,0.00685 0.033448,0.013281 0.042753,0.020097 z" />
</svg>
