<?xml version="1.0" encoding="UTF-8" standalone="no"?>
<svg
   xmlns:dc="http://purl.org/dc/elements/1.1/"
   xmlns:cc="http://creativecommons.org/ns#"
   xmlns:rdf="http://www.w3.org/1999/02/22-rdf-syntax-ns#"
   xmlns:svg="http://www.w3.org/2000/svg"
   xmlns="http://www.w3.org/2000/svg"
   xmlns:sodipodi="http://sodipodi.sourceforge.net/DTD/sodipodi-0.dtd"
   xmlns:inkscape="http://www.inkscape.org/namespaces/inkscape"
   id="svg8"
   version="1.1"
   viewBox="0 0 3.7041667 3.7041667"
   height="3.7041667mm"
   width="3.7041667mm"
   sodipodi:docname="laboratory.svg"
   inkscape:version="0.92.4 (5da689c313, 2019-01-14)">
  <sodipodi:namedview
     pagecolor="#ffffff"
     bordercolor="#666666"
     borderopacity="1"
     objecttolerance="10"
     gridtolerance="10"
     guidetolerance="10"
     inkscape:pageopacity="0"
     inkscape:pageshadow="2"
     inkscape:window-width="1920"
     inkscape:window-height="1020"
     id="namedview8"
     showgrid="false"
     inkscape:zoom="33.714286"
     inkscape:cx="14.469286"
     inkscape:cy="8.5688152"
     inkscape:window-x="0"
     inkscape:window-y="31"
     inkscape:window-maximized="1"
     inkscape:current-layer="svg8" />
  <defs
     id="defs2" />
  <metadata
     id="metadata5">
    <rdf:RDF>
      <cc:Work
         rdf:about="">
        <dc:format>image/svg+xml</dc:format>
        <dc:type
           rdf:resource="http://purl.org/dc/dcmitype/StillImage" />
        <dc:title />
      </cc:Work>
    </rdf:RDF>
  </metadata>
  <g
     transform="translate(0,-293.29581)"
     id="layer1">
    <path
       id="rect815"
       transform="matrix(0.26458333,0,0,0.26458333,0,293.29581)"
       d="M 6.0507812 0 L 4.7265625 1.3261719 L 5.5703125 2.1699219 C 5.0058937 2.7542746 3.7002569 4.1375088 2.3339844 6.0507812 C 1.4837466 7.241408 0.70123506 8.5209999 0.2890625 9.7578125 C 0.082962783 10.376257 -0.036598973 10.990726 0.009765625 11.59375 C 0.056155357 12.196811 0.2945187 12.796369 0.75 13.251953 C 1.2054816 13.707537 1.8034446 13.943746 2.40625 13.990234 C 3.0091555 14.036723 3.6219641 13.9173 4.2402344 13.710938 C 5.4767507 13.298667 6.7627968 12.522306 7.953125 11.671875 C 9.8653671 10.305614 11.247393 8.9985575 11.832031 8.4335938 L 12.675781 9.2773438 L 14 7.9511719 L 6.0507812 0 z M 6.5625 3.1640625 L 10.837891 7.4394531 C 10.788343 7.4869772 10.659852 7.5990913 10.599609 7.65625 C 10.443031 7.7530224 9.9105683 8.0687595 9.1308594 8.2636719 C 8.2259721 8.4900656 7.2081551 8.4974194 6.3554688 7.6445312 C 5.4436827 6.7327606 4.4427492 6.5495915 3.625 6.6660156 C 4.854291 4.9756901 6.0265389 3.7206812 6.5625 3.1640625 z M 3.8984375 7.6113281 C 4.4084405 7.5518041 4.9848733 7.6918526 5.6464844 8.3535156 C 6.5661509 9.2731822 7.6908576 9.4493311 8.6679688 9.3476562 C 8.2019925 9.7259288 7.7021025 10.120607 7.1328125 10.527344 C 6.0043011 11.333668 4.8002841 12.047618 3.8007812 12.380859 C 3.3010416 12.547537 2.8586622 12.612016 2.5195312 12.585938 C 2.180426 12.559481 1.9472714 12.464931 1.7402344 12.257812 C 1.5331979 12.050694 1.4457765 11.825767 1.4199219 11.486328 C 1.3938167 11.146927 1.4564699 10.704958 1.6230469 10.205078 C 1.8354615 9.5676929 2.2119699 8.8435999 2.6582031 8.1113281 C 2.8436907 7.9816125 3.1029306 7.8270177 3.4101562 7.7246094 C 3.5660337 7.6726409 3.7284365 7.6311695 3.8984375 7.6113281 z "
       style="fill:#000000;fill-rule:evenodd;stroke-width:0.93706119" />
  </g>
</svg>
